# xmcd
#
# Track frame offsets:
#	150
#	12165
#	28552
#	43217
#	53619
#	67304
#	83648
#	98418
#	109213
#	122658
#	133886
#	150335
#	162569
#	179274
#	194309
#	204974
#	218870
#	235438
#	250459
#	261492
#	275190
#	286662
#
# Disc length: 4038 seconds
#
# Revision: 0
# Processed by: cddbd v1.5.2PL0 Copyright (c) Steve Scherf et al.
# Submitted via: dBpowerAMP V4.0
#
DISCID=440fc416
DTITLE=Brad and Shelly - 24/7
DYEAR=2003
DGENRE=Country
TTITLE0=Don't Make Me
TTITLE1=Legally
TTITLE2=Tin Can
TTITLE3=Strange World
TTITLE4=Mr. Wright Now
TTITLE5=It Was Real
TTITLE6=Heartbreak Ridge
TTITLE7=Twenty Four Seven
TTITLE8=When They Waltz
TTITLE9=Hit And Run
TTITLE10=Love Is Thicker Than Water
TTITLE11=Don't Make Me - Inst.
TTITLE12=Legally - Inst.
TTITLE13=Tin Can - Inst.
TTITLE14=Strange World - Inst.
TTITLE15=Mr. Wright Now - Inst.
TTITLE16=It Was Real - Inst.
TTITLE17=Heartbreak Ridge - Inst.
TTITLE18=Twenty Four Seven - Inst.
TTITLE19=When They Waltz - Inst.
TTITLE20=Hit and Run - Inst.
TTITLE21=Love Is Thicker Than Water -  Inst.
EXTD=Brad and Shelly -24/7
EXTT0=
EXTT1=
EXTT2=
EXTT3=
EXTT4=
EXTT5=
EXTT6=
EXTT7=
EXTT8=
EXTT9=
EXTT10=
EXTT11=
EXTT12=
EXTT13=
EXTT14=
EXTT15=
EXTT16=
EXTT17=
EXTT18=
EXTT19=
EXTT20=
EXTT21=
PLAYORDER=
